<mxfile host="app.diagrams.net" agent="Mozilla/5.0 (Windows NT 10.0; Win64; x64) AppleWebKit/537.36 (KHTML, like Gecko) Chrome/133.0.0.0 Safari/537.36" version="26.0.11">
  <diagram name="Page-1" id="dKo_OURcTQkeodZPaCt2">
    <mxGraphModel dx="2564" dy="1958" grid="1" gridSize="10" guides="1" tooltips="1" connect="1" arrows="1" fold="1" page="1" pageScale="1" pageWidth="850" pageHeight="1100" math="0" shadow="0">
      <root>
        <mxCell id="0" />
        <mxCell id="1" parent="0" />
        <mxCell id="oRtYVJyOH4i7SVlrEOQy-1" value="" style="group" vertex="1" connectable="0" parent="1">
          <mxGeometry x="-340" y="-31" width="1000" height="730" as="geometry" />
        </mxCell>
        <mxCell id="oRtYVJyOH4i7SVlrEOQy-2" value="VPC" style="points=[[0,0],[0.25,0],[0.5,0],[0.75,0],[1,0],[1,0.25],[1,0.5],[1,0.75],[1,1],[0.75,1],[0.5,1],[0.25,1],[0,1],[0,0.75],[0,0.5],[0,0.25]];outlineConnect=0;gradientColor=none;html=1;whiteSpace=wrap;fontSize=12;fontStyle=0;container=1;pointerEvents=0;collapsible=0;recursiveResize=0;shape=mxgraph.aws4.group;grIcon=mxgraph.aws4.group_vpc2;strokeColor=#8C4FFF;fillColor=none;verticalAlign=top;align=left;spacingLeft=30;fontColor=#AAB7B8;dashed=0;shadow=0;" vertex="1" parent="oRtYVJyOH4i7SVlrEOQy-1">
          <mxGeometry x="109.75609756097563" y="52.14285714285714" width="865.8536585365855" height="660.4761904761904" as="geometry" />
        </mxCell>
        <mxCell id="oRtYVJyOH4i7SVlrEOQy-4" value="Availability zone us-east-1a" style="outlineConnect=0;gradientColor=none;html=1;whiteSpace=wrap;fontSize=12;fontStyle=0;shape=mxgraph.aws4.group;grIcon=mxgraph.aws4.group_availability_zone;strokeColor=#545B64;fillColor=none;verticalAlign=top;align=left;spacingLeft=30;fontColor=#545B64;dashed=1;shadow=0;" vertex="1" parent="oRtYVJyOH4i7SVlrEOQy-2">
          <mxGeometry x="48.78048780487806" y="95.59523809523807" width="304.87804878048786" height="530.1190476190475" as="geometry" />
        </mxCell>
        <mxCell id="oRtYVJyOH4i7SVlrEOQy-15" value="Availability zone us-east-1b" style="outlineConnect=0;gradientColor=none;html=1;whiteSpace=wrap;fontSize=12;fontStyle=0;shape=mxgraph.aws4.group;grIcon=mxgraph.aws4.group_availability_zone;strokeColor=#545B64;fillColor=none;verticalAlign=top;align=left;spacingLeft=30;fontColor=#545B64;dashed=1;shadow=0;" vertex="1" parent="oRtYVJyOH4i7SVlrEOQy-2">
          <mxGeometry x="536.5853658536587" y="95.59523809523807" width="304.87804878048786" height="530.1190476190475" as="geometry" />
        </mxCell>
        <mxCell id="oRtYVJyOH4i7SVlrEOQy-3" value="&lt;font style=&quot;color: light-dark(rgb(0, 0, 0), rgb(237, 237, 237));&quot;&gt;AWS Cloud&lt;/font&gt;" style="outlineConnect=0;gradientColor=none;html=1;whiteSpace=wrap;fontSize=12;fontStyle=0;shape=mxgraph.aws4.group;grIcon=mxgraph.aws4.group_aws_cloud;strokeColor=#3B3B3B;fillColor=none;verticalAlign=top;align=left;spacingLeft=30;fontColor=#AAB7B8;dashed=0;shadow=0;" vertex="1" parent="oRtYVJyOH4i7SVlrEOQy-2">
          <mxGeometry x="-134.14634146341467" y="-75.60714285714283" width="1057.3170731707319" height="770.8452380952378" as="geometry" />
        </mxCell>
        <mxCell id="oRtYVJyOH4i7SVlrEOQy-12" value="Private subnet&lt;br&gt;10.10.5.0/24" style="points=[[0,0],[0.25,0],[0.5,0],[0.75,0],[1,0],[1,0.25],[1,0.5],[1,0.75],[1,1],[0.75,1],[0.5,1],[0.25,1],[0,1],[0,0.75],[0,0.5],[0,0.25]];outlineConnect=0;gradientColor=none;html=1;whiteSpace=wrap;fontSize=12;fontStyle=0;container=1;pointerEvents=0;collapsible=0;recursiveResize=0;shape=mxgraph.aws4.group;grIcon=mxgraph.aws4.group_security_group;grStroke=0;strokeColor=#00A4A6;fillColor=#E6F6F7;verticalAlign=top;align=left;spacingLeft=30;fontColor=#147EBA;dashed=0;shadow=0;" vertex="1" parent="oRtYVJyOH4i7SVlrEOQy-2">
          <mxGeometry x="60.97560975609757" y="469.28571428571416" width="280.48780487804885" height="139.04761904761904" as="geometry" />
        </mxCell>
        <mxCell id="oRtYVJyOH4i7SVlrEOQy-21" value="Private subnet&lt;br&gt;10.10.6.0/24" style="points=[[0,0],[0.25,0],[0.5,0],[0.75,0],[1,0],[1,0.25],[1,0.5],[1,0.75],[1,1],[0.75,1],[0.5,1],[0.25,1],[0,1],[0,0.75],[0,0.5],[0,0.25]];outlineConnect=0;gradientColor=none;html=1;whiteSpace=wrap;fontSize=12;fontStyle=0;container=1;pointerEvents=0;collapsible=0;recursiveResize=0;shape=mxgraph.aws4.group;grIcon=mxgraph.aws4.group_security_group;grStroke=0;strokeColor=#00A4A6;fillColor=#E6F6F7;verticalAlign=top;align=left;spacingLeft=30;fontColor=#147EBA;dashed=0;shadow=0;" vertex="1" parent="oRtYVJyOH4i7SVlrEOQy-2">
          <mxGeometry x="548.7804878048781" y="469.28571428571416" width="280.48780487804885" height="139.04761904761904" as="geometry" />
        </mxCell>
        <mxCell id="oRtYVJyOH4i7SVlrEOQy-24" style="edgeStyle=orthogonalEdgeStyle;rounded=0;orthogonalLoop=1;jettySize=auto;html=1;entryX=0;entryY=0.5;entryDx=0;entryDy=0;entryPerimeter=0;strokeColor=#3399FF;fontColor=#46495D;fillColor=#B2C9AB;dashed=1;shadow=0;" edge="1" parent="oRtYVJyOH4i7SVlrEOQy-2" target="oRtYVJyOH4i7SVlrEOQy-101">
          <mxGeometry relative="1" as="geometry">
            <mxPoint x="216.25842044134717" y="546.714285714286" as="sourcePoint" />
            <mxPoint x="619.8170731707316" y="546.6309523809521" as="targetPoint" />
          </mxGeometry>
        </mxCell>
        <mxCell id="oRtYVJyOH4i7SVlrEOQy-5" value="Public subnet&lt;div&gt;10.10.1.0/24&lt;/div&gt;" style="points=[[0,0],[0.25,0],[0.5,0],[0.75,0],[1,0],[1,0.25],[1,0.5],[1,0.75],[1,1],[0.75,1],[0.5,1],[0.25,1],[0,1],[0,0.75],[0,0.5],[0,0.25]];outlineConnect=0;gradientColor=none;html=1;whiteSpace=wrap;fontSize=12;fontStyle=0;container=1;pointerEvents=0;collapsible=0;recursiveResize=0;shape=mxgraph.aws4.group;grIcon=mxgraph.aws4.group_security_group;grStroke=0;strokeColor=#7AA116;fillColor=#F2F6E8;verticalAlign=top;align=left;spacingLeft=30;fontColor=#248814;dashed=0;shadow=0;" vertex="1" parent="oRtYVJyOH4i7SVlrEOQy-2">
          <mxGeometry x="60.97560975609757" y="139.04761904761904" width="280.48780487804885" height="139.04761904761904" as="geometry" />
        </mxCell>
        <mxCell id="oRtYVJyOH4i7SVlrEOQy-7" value="Public subnet&lt;br&gt;10.10.2.0/24" style="points=[[0,0],[0.25,0],[0.5,0],[0.75,0],[1,0],[1,0.25],[1,0.5],[1,0.75],[1,1],[0.75,1],[0.5,1],[0.25,1],[0,1],[0,0.75],[0,0.5],[0,0.25]];outlineConnect=0;gradientColor=none;html=1;whiteSpace=wrap;fontSize=12;fontStyle=0;container=1;pointerEvents=0;collapsible=0;recursiveResize=0;shape=mxgraph.aws4.group;grIcon=mxgraph.aws4.group_security_group;grStroke=0;strokeColor=#7AA116;fillColor=#F2F6E8;verticalAlign=top;align=left;spacingLeft=30;fontColor=#248814;dashed=0;shadow=0;" vertex="1" parent="oRtYVJyOH4i7SVlrEOQy-2">
          <mxGeometry x="548.7804878048781" y="139.04761904761904" width="280.48780487804885" height="139.04761904761904" as="geometry" />
        </mxCell>
        <mxCell id="oRtYVJyOH4i7SVlrEOQy-13" value="Private subnet&lt;div&gt;10.10.3.0/24&lt;/div&gt;" style="points=[[0,0],[0.25,0],[0.5,0],[0.75,0],[1,0],[1,0.25],[1,0.5],[1,0.75],[1,1],[0.75,1],[0.5,1],[0.25,1],[0,1],[0,0.75],[0,0.5],[0,0.25]];outlineConnect=0;gradientColor=none;html=1;whiteSpace=wrap;fontSize=12;fontStyle=0;container=1;pointerEvents=0;collapsible=0;recursiveResize=0;shape=mxgraph.aws4.group;grIcon=mxgraph.aws4.group_security_group;grStroke=0;strokeColor=#00A4A6;fillColor=#E6F6F7;verticalAlign=top;align=left;spacingLeft=30;fontColor=#147EBA;dashed=0;shadow=0;" vertex="1" parent="oRtYVJyOH4i7SVlrEOQy-2">
          <mxGeometry x="60.97560975609757" y="312.85714285714283" width="280.48780487804885" height="130.35714285714286" as="geometry" />
        </mxCell>
        <mxCell id="oRtYVJyOH4i7SVlrEOQy-14" value="Private subnet&lt;div&gt;10.10.4.0/24&lt;/div&gt;" style="points=[[0,0],[0.25,0],[0.5,0],[0.75,0],[1,0],[1,0.25],[1,0.5],[1,0.75],[1,1],[0.75,1],[0.5,1],[0.25,1],[0,1],[0,0.75],[0,0.5],[0,0.25]];outlineConnect=0;gradientColor=none;html=1;whiteSpace=wrap;fontSize=12;fontStyle=0;container=1;pointerEvents=0;collapsible=0;recursiveResize=0;shape=mxgraph.aws4.group;grIcon=mxgraph.aws4.group_security_group;grStroke=0;strokeColor=#00A4A6;fillColor=#E6F6F7;verticalAlign=top;align=left;spacingLeft=30;fontColor=#147EBA;dashed=0;shadow=0;" vertex="1" parent="oRtYVJyOH4i7SVlrEOQy-2">
          <mxGeometry x="548.7804878048781" y="312.85714285714283" width="280.48780487804885" height="130.35714285714286" as="geometry" />
        </mxCell>
        <mxCell id="oRtYVJyOH4i7SVlrEOQy-16" value="" style="verticalLabelPosition=bottom;verticalAlign=top;html=1;shape=mxgraph.basic.patternFillRect;fillStyle=hor;step=5;fillStrokeWidth=0.2;fillStrokeColor=#dddddd;strokeColor=#FF9933;fontColor=#46495D;fillColor=none;dashed=1;strokeWidth=2;shadow=0;" vertex="1" parent="oRtYVJyOH4i7SVlrEOQy-2">
          <mxGeometry x="109.75609756097563" y="351.52976190476187" width="670.7317073170732" height="74.30357142857143" as="geometry" />
        </mxCell>
        <mxCell id="oRtYVJyOH4i7SVlrEOQy-17" value="" style="points=[[0,0,0],[0.25,0,0],[0.5,0,0],[0.75,0,0],[1,0,0],[0,1,0],[0.25,1,0],[0.5,1,0],[0.75,1,0],[1,1,0],[0,0.25,0],[0,0.5,0],[0,0.75,0],[1,0.25,0],[1,0.5,0],[1,0.75,0]];outlineConnect=0;fontColor=#232F3E;fillColor=#ED7100;strokeColor=#ffffff;dashed=0;verticalLabelPosition=bottom;verticalAlign=top;align=center;html=1;fontSize=12;fontStyle=0;aspect=fixed;shape=mxgraph.aws4.resourceIcon;resIcon=mxgraph.aws4.ec2;shadow=0;" vertex="1" parent="oRtYVJyOH4i7SVlrEOQy-2">
          <mxGeometry x="655.7926829268292" y="361.74107142857133" width="47.363095238095234" height="47.363095238095234" as="geometry" />
        </mxCell>
        <mxCell id="oRtYVJyOH4i7SVlrEOQy-108" value="" style="edgeStyle=orthogonalEdgeStyle;rounded=0;orthogonalLoop=1;jettySize=auto;html=1;entryX=1.026;entryY=0.627;entryDx=0;entryDy=0;entryPerimeter=0;" edge="1" parent="oRtYVJyOH4i7SVlrEOQy-2" source="oRtYVJyOH4i7SVlrEOQy-18" target="oRtYVJyOH4i7SVlrEOQy-39">
          <mxGeometry relative="1" as="geometry">
            <mxPoint x="104.30625725900106" y="385.4404761904764" as="targetPoint" />
          </mxGeometry>
        </mxCell>
        <mxCell id="oRtYVJyOH4i7SVlrEOQy-18" value="" style="points=[[0,0,0],[0.25,0,0],[0.5,0,0],[0.75,0,0],[1,0,0],[0,1,0],[0.25,1,0],[0.5,1,0],[0.75,1,0],[1,1,0],[0,0.25,0],[0,0.5,0],[0,0.75,0],[1,0.25,0],[1,0.5,0],[1,0.75,0]];outlineConnect=0;fontColor=#232F3E;fillColor=#ED7100;strokeColor=#ffffff;dashed=0;verticalLabelPosition=bottom;verticalAlign=top;align=center;html=1;fontSize=12;fontStyle=0;aspect=fixed;shape=mxgraph.aws4.resourceIcon;resIcon=mxgraph.aws4.ec2;shadow=0;" vertex="1" parent="oRtYVJyOH4i7SVlrEOQy-2">
          <mxGeometry x="167.98780487804868" y="361.74107142857133" width="47.363095238095234" height="47.363095238095234" as="geometry" />
        </mxCell>
        <mxCell id="oRtYVJyOH4i7SVlrEOQy-19" value="&lt;font style=&quot;color: rgb(204, 102, 0);&quot;&gt;&lt;b&gt;App-Sg&lt;/b&gt;&lt;/font&gt;" style="text;html=1;align=center;verticalAlign=middle;resizable=0;points=[];autosize=1;strokeColor=none;fillColor=none;fontColor=#46495D;shadow=0;" vertex="1" parent="oRtYVJyOH4i7SVlrEOQy-2">
          <mxGeometry x="271.4673170731708" y="395.8294047619047" width="70" height="30" as="geometry" />
        </mxCell>
        <mxCell id="oRtYVJyOH4i7SVlrEOQy-20" value="&lt;font style=&quot;color: rgb(204, 102, 0); font-size: 11px;&quot;&gt;&lt;b&gt;Auto Scaling Group&lt;/b&gt;&lt;/font&gt;" style="text;html=1;align=center;verticalAlign=middle;resizable=0;points=[];autosize=1;strokeColor=none;fillColor=none;fontColor=#46495D;shadow=0;" vertex="1" parent="oRtYVJyOH4i7SVlrEOQy-2">
          <mxGeometry x="381.7317073170732" y="395.9494047619047" width="130" height="30" as="geometry" />
        </mxCell>
        <mxCell id="oRtYVJyOH4i7SVlrEOQy-28" style="edgeStyle=orthogonalEdgeStyle;rounded=0;orthogonalLoop=1;jettySize=auto;html=1;exitX=0.5;exitY=1;exitDx=0;exitDy=0;exitPerimeter=0;shadow=0;" edge="1" parent="oRtYVJyOH4i7SVlrEOQy-2" source="oRtYVJyOH4i7SVlrEOQy-16">
          <mxGeometry relative="1" as="geometry">
            <Array as="points">
              <mxPoint x="445" y="479" />
              <mxPoint x="200" y="479" />
            </Array>
            <mxPoint x="200.24390243902437" y="518.8571428571429" as="targetPoint" />
          </mxGeometry>
        </mxCell>
        <mxCell id="oRtYVJyOH4i7SVlrEOQy-29" value="&lt;b&gt;Internet Gateway&lt;/b&gt;" style="text;html=1;align=center;verticalAlign=middle;resizable=0;points=[];autosize=1;strokeColor=none;fillColor=none;shadow=0;" vertex="1" parent="oRtYVJyOH4i7SVlrEOQy-2">
          <mxGeometry x="373.17073170731715" y="23.464285714285708" width="120" height="30" as="geometry" />
        </mxCell>
        <mxCell id="oRtYVJyOH4i7SVlrEOQy-36" value="&lt;b&gt;EC2&lt;/b&gt;" style="text;html=1;align=center;verticalAlign=middle;resizable=0;points=[];autosize=1;strokeColor=none;fillColor=none;shadow=0;" vertex="1" parent="oRtYVJyOH4i7SVlrEOQy-2">
          <mxGeometry x="170.7317073170732" y="404.7589285714285" width="50" height="30" as="geometry" />
        </mxCell>
        <mxCell id="oRtYVJyOH4i7SVlrEOQy-38" value="&lt;b&gt;S3&lt;/b&gt;" style="text;html=1;align=center;verticalAlign=middle;resizable=0;points=[];autosize=1;strokeColor=none;fillColor=none;shadow=0;" vertex="1" parent="oRtYVJyOH4i7SVlrEOQy-2">
          <mxGeometry x="-79.6807317073171" y="407.7404761904761" width="40" height="30" as="geometry" />
        </mxCell>
        <mxCell id="oRtYVJyOH4i7SVlrEOQy-39" value="" style="outlineConnect=0;fontColor=#232F3E;gradientColor=none;strokeColor=#ffffff;fillColor=#232F3E;dashed=0;verticalLabelPosition=middle;verticalAlign=bottom;align=center;html=1;whiteSpace=wrap;fontSize=10;fontStyle=1;spacing=3;shape=mxgraph.aws4.productIcon;prIcon=mxgraph.aws4.s3;shadow=0;" vertex="1" parent="oRtYVJyOH4i7SVlrEOQy-2">
          <mxGeometry x="-86.48073170731712" y="355.3166666666666" width="55.60975609756099" height="49.535714285714285" as="geometry" />
        </mxCell>
        <mxCell id="oRtYVJyOH4i7SVlrEOQy-37" value="&lt;b&gt;&lt;font style=&quot;font-size: 15px;&quot;&gt;NAT Gateway&lt;/font&gt;&lt;/b&gt;" style="text;html=1;align=center;verticalAlign=middle;resizable=0;points=[];autosize=1;strokeColor=none;fillColor=none;" vertex="1" parent="oRtYVJyOH4i7SVlrEOQy-2">
          <mxGeometry x="131.05390243902437" y="248.09714285714287" width="120" height="30" as="geometry" />
        </mxCell>
        <mxCell id="oRtYVJyOH4i7SVlrEOQy-6" value="" style="outlineConnect=0;fontColor=#232F3E;gradientColor=none;fillColor=#8C4FFF;strokeColor=none;dashed=0;verticalLabelPosition=bottom;verticalAlign=top;align=center;html=1;fontSize=12;fontStyle=0;aspect=fixed;pointerEvents=1;shape=mxgraph.aws4.nat_gateway;shadow=0;" vertex="1" parent="oRtYVJyOH4i7SVlrEOQy-2">
          <mxGeometry x="162.29999999999998" y="182.5" width="57.5" height="57.5" as="geometry" />
        </mxCell>
        <mxCell id="oRtYVJyOH4i7SVlrEOQy-58" value="&lt;b&gt;&lt;font style=&quot;font-size: 15px;&quot;&gt;NAT Gateway&lt;/font&gt;&lt;/b&gt;" style="text;html=1;align=center;verticalAlign=middle;resizable=0;points=[];autosize=1;strokeColor=none;fillColor=none;" vertex="1" parent="oRtYVJyOH4i7SVlrEOQy-2">
          <mxGeometry x="619.4739024390244" y="248.0971428571429" width="120" height="30" as="geometry" />
        </mxCell>
        <mxCell id="oRtYVJyOH4i7SVlrEOQy-59" value="" style="outlineConnect=0;fontColor=#232F3E;gradientColor=none;fillColor=#8C4FFF;strokeColor=none;dashed=0;verticalLabelPosition=bottom;verticalAlign=top;align=center;html=1;fontSize=12;fontStyle=0;aspect=fixed;pointerEvents=1;shape=mxgraph.aws4.nat_gateway;shadow=0;" vertex="1" parent="oRtYVJyOH4i7SVlrEOQy-2">
          <mxGeometry x="645.6600000000001" y="182.5" width="57.5" height="57.5" as="geometry" />
        </mxCell>
        <mxCell id="oRtYVJyOH4i7SVlrEOQy-25" value="&lt;font style=&quot;color: rgb(51, 153, 255);&quot;&gt;&lt;b&gt;Db-Sg&lt;/b&gt;&lt;/font&gt;" style="text;html=1;align=center;verticalAlign=middle;resizable=0;points=[];autosize=1;strokeColor=none;fillColor=none;fontColor=#46495D;shadow=0;" vertex="1" parent="oRtYVJyOH4i7SVlrEOQy-2">
          <mxGeometry x="276.4704878048781" y="551.4247619047618" width="60" height="30" as="geometry" />
        </mxCell>
        <mxCell id="oRtYVJyOH4i7SVlrEOQy-101" value="" style="sketch=0;points=[[0,0,0],[0.25,0,0],[0.5,0,0],[0.75,0,0],[1,0,0],[0,1,0],[0.25,1,0],[0.5,1,0],[0.75,1,0],[1,1,0],[0,0.25,0],[0,0.5,0],[0,0.75,0],[1,0.25,0],[1,0.5,0],[1,0.75,0]];outlineConnect=0;fontColor=#232F3E;fillColor=#3333FF;strokeColor=#ffffff;dashed=0;verticalLabelPosition=bottom;verticalAlign=top;align=center;html=1;fontSize=12;fontStyle=0;aspect=fixed;shape=mxgraph.aws4.resourceIcon;resIcon=mxgraph.aws4.aurora;" vertex="1" parent="oRtYVJyOH4i7SVlrEOQy-2">
          <mxGeometry x="655.2439024390244" y="520.9071428571428" width="51" height="51" as="geometry" />
        </mxCell>
        <mxCell id="oRtYVJyOH4i7SVlrEOQy-32" value="" style="verticalLabelPosition=bottom;verticalAlign=top;html=1;shape=mxgraph.basic.patternFillRect;fillStyle=hor;step=5;fillStrokeWidth=0.2;fillStrokeColor=#dddddd;strokeColor=#3399FF;fontColor=#46495D;fillColor=none;dashed=1;strokeWidth=2;shadow=0;" vertex="1" parent="oRtYVJyOH4i7SVlrEOQy-2">
          <mxGeometry x="109.75609756097563" y="511.8690476190475" width="670.7317073170732" height="79.08333333333331" as="geometry" />
        </mxCell>
        <mxCell id="oRtYVJyOH4i7SVlrEOQy-41" value="Region" style="points=[[0,0],[0.25,0],[0.5,0],[0.75,0],[1,0],[1,0.25],[1,0.5],[1,0.75],[1,1],[0.75,1],[0.5,1],[0.25,1],[0,1],[0,0.75],[0,0.5],[0,0.25]];outlineConnect=0;gradientColor=none;html=1;whiteSpace=wrap;fontSize=12;fontStyle=0;container=1;pointerEvents=0;collapsible=0;recursiveResize=0;shape=mxgraph.aws4.group;grIcon=mxgraph.aws4.group_region;strokeColor=#00A4A6;fillColor=none;verticalAlign=top;align=left;spacingLeft=30;fontColor=#147EBA;dashed=1;shadow=0;" vertex="1" parent="oRtYVJyOH4i7SVlrEOQy-1">
          <mxGeometry width="1000.0000000000001" height="730" as="geometry" />
        </mxCell>
        <mxCell id="oRtYVJyOH4i7SVlrEOQy-44" value="&lt;b&gt;EC2&lt;/b&gt;" style="text;html=1;align=center;verticalAlign=middle;resizable=0;points=[];autosize=1;strokeColor=none;fillColor=none;shadow=0;" vertex="1" parent="oRtYVJyOH4i7SVlrEOQy-41">
          <mxGeometry x="768.2926829268293" y="457.11904761904754" width="50" height="30" as="geometry" />
        </mxCell>
        <mxCell id="oRtYVJyOH4i7SVlrEOQy-45" value="&lt;b&gt;RDS&lt;/b&gt;" style="text;html=1;align=center;verticalAlign=middle;resizable=0;points=[];autosize=1;strokeColor=none;fillColor=none;shadow=0;" vertex="1" parent="oRtYVJyOH4i7SVlrEOQy-41">
          <mxGeometry x="281.48780487804885" y="620.5" width="50" height="30" as="geometry" />
        </mxCell>
        <mxCell id="oRtYVJyOH4i7SVlrEOQy-51" value="" style="outlineConnect=0;dashed=0;verticalLabelPosition=bottom;verticalAlign=top;align=center;html=1;shape=mxgraph.aws3.auto_scaling;fillColor=#F58534;gradientColor=none;strokeColor=#788AA3;fontColor=#46495D;shadow=0;" vertex="1" parent="oRtYVJyOH4i7SVlrEOQy-1">
          <mxGeometry x="525.3160975609757" y="408.45285714285717" width="50" height="49.77" as="geometry" />
        </mxCell>
        <mxCell id="oRtYVJyOH4i7SVlrEOQy-60" style="edgeStyle=orthogonalEdgeStyle;rounded=0;orthogonalLoop=1;jettySize=auto;html=1;entryX=0.5;entryY=0;entryDx=0;entryDy=0;entryPerimeter=0;exitX=0.523;exitY=0.98;exitDx=0;exitDy=0;exitPerimeter=0;" edge="1" parent="oRtYVJyOH4i7SVlrEOQy-1" source="oRtYVJyOH4i7SVlrEOQy-27" target="oRtYVJyOH4i7SVlrEOQy-51">
          <mxGeometry relative="1" as="geometry">
            <mxPoint x="560" y="301" as="sourcePoint" />
            <mxPoint x="550" y="400" as="targetPoint" />
          </mxGeometry>
        </mxCell>
        <mxCell id="oRtYVJyOH4i7SVlrEOQy-27" value="" style="outlineConnect=0;dashed=0;verticalLabelPosition=bottom;verticalAlign=top;align=center;html=1;shape=mxgraph.aws3.application_load_balancer;fillColor=#F58534;gradientColor=none;strokeColor=#788AA3;fontColor=#46495D;shadow=0;" vertex="1" parent="oRtYVJyOH4i7SVlrEOQy-1">
          <mxGeometry x="518.59" y="230" width="60.63" height="62.14" as="geometry" />
        </mxCell>
        <mxCell id="oRtYVJyOH4i7SVlrEOQy-61" value="" style="sketch=0;points=[[0,0,0],[0.25,0,0],[0.5,0,0],[0.75,0,0],[1,0,0],[0,1,0],[0.25,1,0],[0.5,1,0],[0.75,1,0],[1,1,0],[0,0.25,0],[0,0.5,0],[0,0.75,0],[1,0.25,0],[1,0.5,0],[1,0.75,0]];outlineConnect=0;fontColor=#232F3E;fillColor=#3333FF;strokeColor=#ffffff;dashed=0;verticalLabelPosition=bottom;verticalAlign=top;align=center;html=1;fontSize=12;fontStyle=0;aspect=fixed;shape=mxgraph.aws4.resourceIcon;resIcon=mxgraph.aws4.aurora;" vertex="1" parent="oRtYVJyOH4i7SVlrEOQy-1">
          <mxGeometry x="280" y="573" width="51" height="51" as="geometry" />
        </mxCell>
        <mxCell id="oRtYVJyOH4i7SVlrEOQy-52" value="" style="outlineConnect=0;fontColor=#232F3E;gradientColor=none;fillColor=#8C4FFF;strokeColor=none;dashed=0;verticalLabelPosition=bottom;verticalAlign=top;align=center;html=1;fontSize=12;fontStyle=0;aspect=fixed;pointerEvents=1;shape=mxgraph.aws4.internet_gateway;shadow=0;" vertex="1" parent="1">
          <mxGeometry x="188.04024390243907" y="-5.797619047619044" width="41.7142857142857" height="41.7142857142857" as="geometry" />
        </mxCell>
        <mxCell id="oRtYVJyOH4i7SVlrEOQy-53" value="" style="edgeStyle=orthogonalEdgeStyle;rounded=0;orthogonalLoop=1;jettySize=auto;html=1;shadow=0;" edge="1" parent="1" source="oRtYVJyOH4i7SVlrEOQy-52" target="oRtYVJyOH4i7SVlrEOQy-27">
          <mxGeometry relative="1" as="geometry" />
        </mxCell>
        <mxCell id="oRtYVJyOH4i7SVlrEOQy-54" value="" style="edgeStyle=orthogonalEdgeStyle;rounded=0;orthogonalLoop=1;jettySize=auto;html=1;" edge="1" parent="1" source="oRtYVJyOH4i7SVlrEOQy-55" target="oRtYVJyOH4i7SVlrEOQy-52">
          <mxGeometry relative="1" as="geometry" />
        </mxCell>
        <mxCell id="oRtYVJyOH4i7SVlrEOQy-55" value="" style="html=1;verticalLabelPosition=bottom;align=center;labelBackgroundColor=#ffffff;verticalAlign=top;strokeWidth=2;strokeColor=#0080F0;shadow=0;dashed=0;shape=mxgraph.ios7.icons.user;" vertex="1" parent="1">
          <mxGeometry x="193.9" y="-110" width="30" height="30" as="geometry" />
        </mxCell>
        <mxCell id="oRtYVJyOH4i7SVlrEOQy-56" value="&lt;b&gt;User&lt;/b&gt;" style="text;html=1;align=center;verticalAlign=middle;resizable=0;points=[];autosize=1;strokeColor=none;fillColor=none;" vertex="1" parent="1">
          <mxGeometry x="220" y="-110" width="50" height="30" as="geometry" />
        </mxCell>
        <mxCell id="oRtYVJyOH4i7SVlrEOQy-47" value="&lt;b&gt;RDS&lt;/b&gt;" style="text;html=1;align=center;verticalAlign=middle;resizable=0;points=[];autosize=1;strokeColor=none;fillColor=none;shadow=0;" vertex="1" parent="1">
          <mxGeometry x="425.9958536585367" y="589.5" width="50" height="30" as="geometry" />
        </mxCell>
      </root>
    </mxGraphModel>
  </diagram>
</mxfile>
